<svg width="30" height="31" viewBox="0 0 30 31" fill="none" xmlns="http://www.w3.org/2000/svg">
<g clip-path="url(#clip0_307:54)">
<path d="M29.2129 24.1415L23.1408 20.0921C22.3702 19.5823 21.3373 19.7501 20.7676 20.4775L18.9989 22.7517C18.7715 23.0514 18.3583 23.1383 18.0295 22.9557L17.6931 22.7702C16.5777 22.1622 15.1899 21.4054 12.3939 18.6083C9.59777 15.8112 8.83939 14.4224 8.23145 13.3091L8.04696 12.9726C7.86178 12.6439 7.94708 12.2289 8.24691 11.9998L10.5195 10.2316C11.2467 9.66183 11.4147 8.62921 10.9055 7.8584L6.85611 1.7863C6.33429 1.00138 5.28737 0.765746 4.47954 1.25136L1.94041 2.77662C1.1426 3.24565 0.557275 4.00526 0.307176 4.89629C-0.607161 8.22778 0.0806853 13.9774 8.55044 22.4482C15.288 29.1852 20.3037 30.9969 23.7512 30.9969C24.5446 31.0003 25.3349 30.8971 26.1009 30.69C26.9921 30.4402 27.7518 29.8548 28.2206 29.0568L29.7473 26.5191C30.2337 25.7111 29.9981 24.6636 29.2129 24.1415ZM28.8859 26.0062L27.3626 28.5453C27.0261 29.1213 26.4796 29.5448 25.8378 29.7271C22.7623 30.5715 17.3891 29.8721 9.2578 21.7408C1.12649 13.6095 0.427158 8.2368 1.27154 5.1608C1.4541 4.51824 1.87813 3.97111 2.45485 3.63401L4.99398 2.11074C5.34449 1.89984 5.79888 2.00207 6.02531 2.34268L8.22501 5.64518L10.0713 8.41426C10.2924 8.7486 10.2197 9.19672 9.90429 9.44413L7.63113 11.2123C6.93936 11.7413 6.74181 12.6984 7.16772 13.458L7.34822 13.786C7.98715 14.9578 8.7815 16.4156 11.6816 19.3152C14.5817 22.2147 16.039 23.0091 17.2103 23.648L17.5387 23.829C18.2982 24.2548 19.2554 24.0573 19.7844 23.3656L21.5526 21.0924C21.8 20.7772 22.248 20.7046 22.5824 20.9254L28.654 24.9748C28.9949 25.2011 29.0971 25.6557 28.8859 26.0062Z" fill="#33485D"/>
<path d="M16.9992 6.00067C21.6907 6.00588 25.4927 9.80788 25.4979 14.4994C25.4979 14.7755 25.7217 14.9993 25.9978 14.9993C26.2739 14.9993 26.4977 14.7755 26.4977 14.4994C26.4919 9.25589 22.2427 5.0066 16.9992 5.00085C16.7231 5.00085 16.4993 5.22465 16.4993 5.50076C16.4993 5.77687 16.7231 6.00067 16.9992 6.00067Z" fill="#33485D"/>
<path d="M16.9992 9.0003C20.0348 9.00387 22.4948 11.4639 22.4984 14.4995C22.4984 14.7756 22.7222 14.9994 22.9983 14.9994C23.2744 14.9994 23.4982 14.7756 23.4982 14.4995C23.494 10.9119 20.5867 8.00459 16.9992 8.00049C16.7231 8.00049 16.4993 8.22428 16.4993 8.50039C16.4993 8.77651 16.7231 9.0003 16.9992 9.0003Z" fill="#33485D"/>
<path d="M16.9992 11.9998C18.379 12.0015 19.4971 13.1196 19.4988 14.4995C19.4988 14.7756 19.7227 14.9994 19.9987 14.9994C20.2748 14.9994 20.4986 14.7756 20.4986 14.4995C20.4964 12.5677 18.931 11.0022 16.9992 11C16.7231 11 16.4993 11.2238 16.4993 11.4999C16.4993 11.776 16.7231 11.9998 16.9992 11.9998Z" fill="#33485D"/>
</g>
<defs>
<clipPath id="clip0_307:54">
<rect width="30" height="30" fill="white" transform="translate(0 0.998047)"/>
</clipPath>
</defs>
</svg>
